<svg width="600" height="600" xmlns="http://www.w3.org/2000/svg">
 <g id="Layer_1">
  <title>Layer 1</title>
  <path stroke-opacity="0" id="svg_8" d="m300.0196,145.79159c-85.03335,0 -153.90058,69.00936 -153.90058,154.21818c0,85.15006 68.86724,154.19859 153.90058,154.19859c84.95515,0 153.86149,-69.04853 153.86149,-154.19859c0.01955,-85.20883 -68.86724,-154.21818 -153.86149,-154.21818zm0,269.25989c-63.41337,-0.15671 -114.66796,-51.51706 -114.82434,-115.02212c0.13684,-63.52465 51.41097,-114.90459 114.82434,-115.0613c63.37428,0.15671 114.62886,51.53665 114.7657,115.0613c-0.13684,63.50506 -51.39142,114.86542 -114.7657,115.02212zm0,-279.58289c10.80999,0 19.5479,-8.77553 19.5479,-19.60782l0,-95.02253c-0.0391,-10.83229 -8.75746,-19.58824 -19.5479,-19.58824c-10.80999,0 -19.56744,8.79512 -19.5479,19.62741l0,95.00294c0,10.79312 8.73791,19.58824 19.5479,19.58824zm62.80739,12.49729c2.44349,1.03818 4.98471,1.48871 7.4673,1.50829c7.70187,0 14.95414,-4.56406 18.0818,-12.10553l36.28089,-87.81406c4.10506,-10.00959 -0.60598,-21.44912 -10.57541,-25.58224c-9.98897,-4.13312 -21.42449,0.60724 -25.56865,10.59724l-36.26135,87.83365c-4.12461,9.99 0.60598,21.44912 10.57541,25.56265zm53.26802,35.67018c3.81184,3.80012 8.8161,5.73935 13.82036,5.73935s10.00852,-1.91965 13.82036,-5.73935l67.04928,-67.24641c7.64323,-7.63941 7.62368,-20.03877 0,-27.71735c-7.66278,-7.63941 -20.03659,-7.63941 -27.66027,0.03918l-67.02973,67.20724c-7.64323,7.659 -7.64323,20.05835 0,27.71735zm35.63581,53.35835c3.08857,7.54147 10.37993,12.08594 18.04271,12.08594c2.48258,0 5.02381,-0.48971 7.48684,-1.52788l87.57457,-36.37535c9.98897,-4.13312 14.71957,-15.61182 10.57541,-25.60182s-15.56012,-14.73035 -25.5491,-10.57765l-87.59412,36.37535c-9.96943,4.15271 -14.68047,15.63141 -10.53632,25.62141zm126.8463,43.30959l-94.82684,0.01959c-10.79044,0 -19.5479,8.77553 -19.5088,19.60782c0,10.83229 8.73791,19.56865 19.5088,19.56865l94.84639,-0.03918c10.80999,0 19.52835,-8.79512 19.52835,-19.58824c0,-10.83229 -8.75746,-19.60782 -19.5479,-19.56865zm-13.64443,108.28377l-87.61367,-36.31659c-10.00852,-4.15271 -21.44404,0.58765 -25.5491,10.59724c-4.12461,10.00959 0.60598,21.46871 10.57541,25.62141l87.61367,36.31659c2.46303,0.999 5.00426,1.46912 7.48684,1.46912c7.68232,0 14.95414,-4.54447 18.0818,-12.08594c4.10506,-10.00959 -0.64508,-21.48829 -10.59496,-25.60182zm-121.07967,27.67818c-7.64323,-7.659 -19.9975,-7.659 -27.64072,0.01959c-7.64323,7.63941 -7.62368,20.01918 0,27.67818l67.12747,67.16806c3.81184,3.81971 8.79655,5.73935 13.80081,5.73935s10.02807,-1.91965 13.83991,-5.73935c7.64323,-7.67859 7.60413,-20.07794 0,-27.71735l-67.12747,-67.14847zm-55.34009,46.287c-4.12461,-10.00959 -15.56012,-14.73035 -25.5491,-10.59724c-9.96943,4.15271 -14.70002,15.61182 -10.55586,25.62141l36.35909,87.7553c3.10812,7.54147 10.37993,12.08594 18.0818,12.08594c2.50213,0 5.04336,-0.47012 7.48684,-1.48871c9.98897,-4.13312 14.70002,-15.61182 10.55586,-25.641l-36.37863,-87.73571zm-88.29784,2.01759c-10.80999,0 -19.5479,8.77553 -19.5479,19.58824l0.07819,95.02253c0,10.83229 8.77701,19.56865 19.5479,19.56865c10.80999,0 19.5479,-8.77553 19.5088,-19.58824l-0.05864,-95.04212c0,-10.77353 -8.77701,-19.56865 -19.52835,-19.54906zm-62.86603,-12.45812c-9.96943,-4.11353 -21.3854,0.60724 -25.52955,10.63641l-36.2027,87.81406c-4.10506,10.00959 0.64508,21.46871 10.61451,25.60182c2.44349,1.01859 4.96517,1.48871 7.4673,1.48871c7.66278,0 14.95414,-4.58365 18.06226,-12.12512l36.22225,-87.85324c4.12461,-9.99 -0.64508,-21.42953 -10.63406,-25.56265zm-53.28756,-35.59182c-7.66278,-7.659 -20.03659,-7.61982 -27.66027,0.03918l-66.97109,67.24641c-7.64323,7.67859 -7.60413,20.03877 0.0391,27.71735c3.81184,3.80012 8.79655,5.71976 13.80081,5.71976c5.02381,0 10.02807,-1.91965 13.83991,-5.73935l66.99064,-67.266c7.60413,-7.659 7.60413,-20.05835 -0.0391,-27.71735zm-35.65536,-53.29959c-4.1637,-9.97041 -15.57967,-14.71077 -25.5491,-10.57765l-87.55502,36.45371c-9.98897,4.15271 -14.70002,15.63141 -10.55586,25.62141c3.12766,7.54147 10.37993,12.06635 18.06226,12.06635c2.48258,0 5.04336,-0.47012 7.48684,-1.48871l87.55502,-36.45371c9.94988,-4.19188 14.68047,-15.651 10.55586,-25.62141zm-12.62794,-62.91741c0,-10.83229 -8.73791,-19.56865 -19.5479,-19.56865l-94.82684,0.11753c-10.80999,0 -19.56744,8.77553 -19.52835,19.60782c0.01955,10.79312 8.77701,19.58824 19.5479,19.54906l94.84639,-0.11753c10.79044,0 19.5479,-8.81471 19.5088,-19.58824zm-100.78895,-88.59759l87.67231,36.23824c2.44349,1.03818 4.96517,1.48871 7.44775,1.48871c7.68232,0 14.97369,-4.54447 18.0818,-12.10553c4.14415,-10.00959 -0.62553,-21.48829 -10.63406,-25.58224l-87.63322,-36.23824c-9.98897,-4.11353 -21.40495,0.62682 -25.52955,10.61682c-4.14415,10.00959 0.64508,21.42953 10.59496,25.58224zm121.06012,-27.77612c3.81184,3.78053 8.77701,5.70018 13.78127,5.70018s10.02807,-1.91965 13.85946,-5.77853c7.64323,-7.61982 7.60413,-20.03877 -0.07819,-27.69777l-67.12747,-67.07012c-7.62368,-7.63941 -20.03659,-7.60024 -27.64072,0.05876c-7.64323,7.63941 -7.60413,20.05835 0.0391,27.69777l67.16657,67.08971zm55.2619,-46.36535c3.12766,7.52188 10.39948,12.04677 18.04271,12.04677c2.50213,0 5.04336,-0.48971 7.50639,-1.50829c9.96943,-4.15271 14.71957,-15.63141 10.55586,-25.60182l-36.43728,-87.73571c-4.14415,-9.99 -15.59922,-14.71077 -25.56865,-10.55806c-9.96943,4.17229 -14.68047,15.651 -10.53632,25.62141l36.43728,87.73571z" stroke-width="0" stroke="#ffffff" fill="url(#svg_36)"/>
 </g>
 <defs>
  <linearGradient y2="1" x2="0.5" y1="0" x1="0.5" id="svg_36">
   <stop offset="0.25781" stop-opacity="0.99609" stop-color="#ffd4aa"/>
   <stop offset="1" stop-opacity="0.99609" stop-color="#00007f"/>
  </linearGradient>
 </defs>
</svg>